<svg xmlns="http://www.w3.org/2000/svg" xmlns:xlink="http://www.w3.org/1999/xlink" width="500" zoomAndPan="magnify" viewBox="0 0 375 374.999991" height="500" preserveAspectRatio="xMidYMid meet" version="1.0"><rect x="-37.5" width="450" fill="#ffffff" y="-37.499999" height="449.999989" fill-opacity="1"/><rect x="-37.5" width="450" fill="#ffffff" y="-37.499999" height="449.999989" fill-opacity="1"/><rect x="-37.5" width="450" fill="#ffffff" y="-37.499999" height="449.999989" fill-opacity="1"/><path fill="#1e5950" d="M 111.101562 355.375 C 120.367188 353.371094 127.292969 346.367188 129.1875 337.074219 C 135.214844 307.472656 150.558594 253.363281 186.917969 210.804688 C 223.28125 253.375 238.652344 307.480469 244.699219 337.074219 C 246.597656 346.359375 253.527344 353.371094 262.792969 355.382812 C 264.507812 355.753906 266.214844 355.929688 267.90625 355.929688 C 275.320312 355.929688 282.257812 352.4375 286.78125 346.199219 C 337.363281 276.332031 368.761719 182.984375 364.910156 113.890625 C 363.566406 89.484375 354.792969 68.429688 338.113281 49.546875 C 315.191406 23.519531 275.632812 18.148438 246.085938 37.050781 L 186.917969 74.886719 L 127.75 37.050781 C 97.757812 17.878906 59.054688 23.125 35.722656 49.546875 C 19.097656 68.359375 10.335938 89.402344 8.925781 113.890625 C 5.074219 183 36.488281 276.355469 87.105469 346.199219 C 92.652344 353.859375 101.84375 357.410156 111.101562 355.375 Z M 29.917969 115.085938 C 31.0625 95.230469 37.914062 78.824219 51.488281 63.457031 C 67.648438 45.167969 95.5625 41.433594 116.429688 54.753906 L 181.132812 96.128906 C 181.15625 96.144531 181.164062 96.171875 181.191406 96.1875 L 217.457031 119.828125 C 219.230469 120.988281 221.214844 121.535156 223.191406 121.535156 C 226.621094 121.535156 229.992188 119.851562 232 116.765625 C 235.171875 111.898438 233.792969 105.378906 228.933594 102.226562 L 206.28125 87.460938 L 257.417969 54.761719 C 278.289062 41.398438 306.210938 45.125 322.355469 63.457031 C 335.976562 78.890625 342.839844 95.28125 343.921875 115.066406 C 347.53125 179.703125 317.722656 267.636719 269.761719 333.878906 C 269.132812 334.753906 268.300781 335.105469 267.242188 334.835938 C 266.171875 334.609375 265.515625 333.953125 265.304688 332.886719 C 258.402344 299.078125 240.023438 235.300781 194.519531 187.886719 C 194.519531 187.886719 194.511719 187.886719 194.511719 187.878906 C 152.410156 143.921875 96.949219 123.191406 29.640625 126.605469 C 29.609375 122.679688 29.710938 118.835938 29.917969 115.085938 Z M 30.675781 147.589844 C 87.945312 144.8125 135.570312 160.933594 172.347656 195.515625 C 131.917969 241.929688 115.113281 300.847656 108.585938 332.871094 C 108.367188 333.9375 107.710938 334.59375 106.652344 334.820312 C 105.609375 335.074219 104.753906 334.71875 104.128906 333.863281 C 63.789062 278.199219 36.285156 207.195312 30.675781 147.589844 Z M 30.675781 147.589844 " fill-opacity="1" fill-rule="nonzero"/></svg>